:FULLY-SPECIFIED
:FORCE-ALL-JOINTS-BE-3DOF
:DEGREES
49
root 8.59402 15.8609 -29.4605 6.66793 -10.1737 -3.18489
lfemur -39.6175 8.41061 -17.7854
ltibia 38.5276 0 0
lfoot -4.1176 6.72528 0
ltoes -2.04233 0 0
rfemur 16.7753 4.35236 21.2172
rtibia 19.5407 0 0
rfoot 3.38911 0.24968 0
rtoes -15.1578 0 0
lowerback -6.77526 0.60235 0.111804
upperback -2.24578 0.718657 3.49461
thorax 1.43742 0.363207 3.60142
lowerneck -21.3193 -4.24734 -12.9247
upperneck 16.9761 -4.98031 14.3885
head 9.59351 -1.60713 6.53381
lclavicle 8.51047e-15 7.15625e-15 0
lhumerus -45.1397 -3.16386 90.0628
lradius 21.1155 0 0
lwrist -4.08485 0 0
lhand 4.04619 -16.4142 0
lfingers 7.12502 0 0
lthumb 29.4598 11.2695 0
rclavicle 8.51047e-15 7.15625e-15 0
rhumerus -47.1264 19.779 -94.7034
rradius 49.2455 0 0
rwrist -25.0408 0 0
rhand -30.4695 -28.7895 0
rfingers 7.12502 0 0
rthumb -3.77081 -58.7359 0
50
root 8.64118 15.8988 -29.2695 6.57498 -10.4195 -2.76416
lfemur -38.7364 8.43107 -18.4403
ltibia 38.4536 0 0
lfoot -4.9177 6.71966 0
ltoes -2.18949 0 0
rfemur 15.0235 3.82051 20.3255
rtibia 23.2818 0 0
rfoot 4.56798 -0.247763 0
rtoes -13.3705 0 0
lowerback -6.56518 0.595041 -0.170403
upperback -2.34779 0.73983 3.36944
thorax 1.21108 0.375647 3.62604
lowerneck -21.4083 -4.22517 -12.8854
upperneck 17.1181 -4.95552 14.3405
head 9.65246 -1.59452 6.51907
lclavicle 8.89367e-15 8.99777e-15 0
lhumerus -44.9182 -2.85814 89.6841
lradius 20.8184 0 0
lwrist -4.62348 0 0
lhand 3.75254 -16.5117 0
lfingers 7.12502 0 0
lthumb 29.1796 11.2224 0
rclavicle 8.89367e-15 8.99777e-15 0
rhumerus -46.7666 19.2587 -94.5803
rradius 47.7069 0 0
rwrist -24.3979 0 0
rhand -30.2116 -28.198 0
rfingers 7.12502 0 0
rthumb -3.52174 -58.1487 0
51
root 8.69733 15.944 -29.0378 6.49577 -10.7231 -2.32936
lfemur -37.6193 8.5208 -19.1604
ltibia 38.1864 0 0
lfoot -5.84573 6.70531 0
ltoes -2.43858 0 0
rfemur 12.8055 3.08643 19.3658
rtibia 27.8258 0 0
rfoot 6.05492 -1.03284 0
rtoes -11.9399 0 0
lowerback -6.3615 0.622968 -0.440605
upperback -2.43716 0.802603 3.2105
thorax 0.999901 0.410006 3.61307
lowerneck -21.5477 -4.21644 -12.7832
upperneck 17.274 -4.96186 14.2775
head 9.72841 -1.59206 6.48403
lclavicle 8.87617e-15 1.27222e-14 0
lhumerus -44.5006 -2.63787 89.1958
lradius 20.495 0 0
lwrist -5.22564 0 0
lhand 3.48358 -16.7187 0
lfingers 7.12502 0 0
lthumb 28.9228 11.0601 0
rclavicle 8.87617e-15 1.27222e-14 0
rhumerus -46.1119 18.4406 -94.3372
rradius 45.7112 0 0
rwrist -23.5325 0 0
rhand -29.9203 -27.6495 0
rfingers 7.12502 0 0
rthumb -3.24046 -57.6045 0
52
root 8.75192 15.988 -28.8103 6.43897 -11.026 -1.94301
lfemur -36.507 8.64728 -19.8286
ltibia 37.8444 0 0
lfoot -6.74192 6.68399 0
ltoes -2.72251 0 0
rfemur 10.5804 2.31385 18.4796
rtibia 32.3006 0 0
rfoot 7.56267 -1.87478 0
rtoes -10.9344 0 0
lowerback -6.18916 0.669995 -0.667351
upperback -2.51013 0.884367 3.04936
thorax 0.822898 0.454183 3.57607
lowerneck -21.701 -4.21701 -12.6546
upperneck 17.4213 -4.98786 14.2174
head 9.80653 -1.59625 6.44228
lclavicle 8.52862e-15 1.75179e-14 0
lhumerus -44.0191 -2.48232 88.6876
lradius 20.186 0 0
lwrist -5.81666 0 0
lhand 3.25755 -16.9736 0
lfingers 7.12502 0 0
lthumb 28.7068 10.8419 0
rclavicle 8.52862e-15 1.75179e-14 0
rhumerus -45.3471 17.5381 -94.0581
rradius 43.6602 0 0
rwrist -22.6325 0 0
rhand -29.6378 -27.1935 0
rfingers 7.12502 0 0
rthumb -2.96767 -57.1525 0
